<?xml version="1.0" encoding="UTF-8"?>
<!DOCTYPE svg PUBLIC "-//W3C//DTD SVG 1.1//EN" "http://www.w3.org/Graphics/SVG/1.1/DTD/svg11.dtd">
<svg xmlns="http://www.w3.org/2000/svg" version="1.1" width="256px" height="256px" style="shape-rendering:geometricPrecision; text-rendering:geometricPrecision; image-rendering:optimizeQuality; fill-rule:evenodd; clip-rule:evenodd" xmlns:xlink="http://www.w3.org/1999/xlink">
<g><path style="opacity:0.994" fill="#89c053" d="M 150.5,126.5 C 144.606,144.524 137.939,162.19 130.5,179.5C 126.928,171.308 123.428,162.974 120,154.5C 117,150.5 114,150.5 111,154.5C 99.4694,182.595 88.6361,210.929 78.5,239.5C 56.8308,239.667 35.1641,239.5 13.5,239C 10.7974,238.135 9.46407,236.301 9.5,233.5C 36.503,161.993 64.003,90.6601 92,19.5C 97.6667,14.1667 103.333,14.1667 109,19.5C 122.938,55.1511 136.771,90.8178 150.5,126.5 Z"/></g>
<g><path style="opacity:0.992" fill="#9acd67" d="M 107.5,239.5 C 122.339,238.833 137.339,238.167 152.5,237.5C 144.591,218.355 137.258,199.022 130.5,179.5C 137.939,162.19 144.606,144.524 150.5,126.5C 156.611,110.853 162.945,95.1865 169.5,79.5C 174.96,74.2331 180.46,74.2331 186,79.5C 205.333,128.833 224.667,178.167 244,227.5C 245.318,230.406 245.652,233.406 245,236.5C 244.097,237.701 242.931,238.535 241.5,239C 196.835,239.5 152.168,239.667 107.5,239.5 Z"/></g>
<g><path style="opacity:1" fill="#aee168" d="M 130.5,179.5 C 137.258,199.022 144.591,218.355 152.5,237.5C 137.339,238.167 122.339,238.833 107.5,239.5C 97.8333,239.5 88.1667,239.5 78.5,239.5C 88.6361,210.929 99.4694,182.595 111,154.5C 114,150.5 117,150.5 120,154.5C 123.428,162.974 126.928,171.308 130.5,179.5 Z"/></g>
</svg>
