<?xml version="1.0" encoding="UTF-8"?>
<!DOCTYPE svg PUBLIC "-//W3C//DTD SVG 1.1//EN" "http://www.w3.org/Graphics/SVG/1.1/DTD/svg11.dtd">
<svg xmlns="http://www.w3.org/2000/svg" version="1.1" width="256px" height="85px" style="shape-rendering:geometricPrecision; text-rendering:geometricPrecision; image-rendering:optimizeQuality; fill-rule:evenodd; clip-rule:evenodd" xmlns:xlink="http://www.w3.org/1999/xlink">
<g><path style="opacity:0.999" fill="#87bc52" d="M 49.5,40.5 C 47.2042,47.0727 44.5375,53.4061 41.5,59.5C 40.6631,56.1478 39.1631,53.1478 37,50.5C 32.4854,59.5413 28.6521,68.8747 25.5,78.5C 25.5,78.8333 25.5,79.1667 25.5,79.5C 17.8333,79.5 10.1667,79.5 2.5,79.5C 2.33982,77.8008 2.50649,76.1341 3,74.5C 11.5935,51.7083 20.7602,29.2083 30.5,7C 32.1124,6.27969 33.6124,6.44636 35,7.5C 39.3051,17.9438 43.4718,28.4438 47.5,39C 47.8361,40.0299 48.5028,40.5299 49.5,40.5 Z"/></g>
<g><path style="opacity:0.998" fill="#98c966" d="M 25.5,79.5 C 25.5,79.1667 25.5,78.8333 25.5,78.5C 33.1667,78.5 40.8333,78.5 48.5,78.5C 46.7589,71.9427 44.4255,65.6094 41.5,59.5C 44.5375,53.4061 47.2042,47.0727 49.5,40.5C 50.6927,36.0894 52.1927,31.7561 54,27.5C 56.2221,24.9557 58.3888,24.9557 60.5,27.5C 67.6424,44.5991 73.9757,61.9324 79.5,79.5C 61.5,79.5 43.5,79.5 25.5,79.5 Z"/></g>
<g><path style="opacity:0.714" fill="#000000" d="M 182.5,27.5 C 184.344,29.2789 185.01,31.6122 184.5,34.5C 193.833,35.1667 193.833,35.8333 184.5,36.5C 184.335,39.8499 184.502,43.1832 185,46.5C 185.689,47.3567 186.522,48.0233 187.5,48.5C 188.891,47.3554 190.224,47.3554 191.5,48.5C 188.748,51.1345 185.915,51.1345 183,48.5C 183.018,43.9308 182.185,39.5975 180.5,35.5C 182.223,33.1324 182.89,30.4658 182.5,27.5 Z"/></g>
<g><path style="opacity:0.587" fill="#000000" d="M 86.5,28.5 C 89.8499,28.335 93.1832,28.5017 96.5,29C 97.7433,30.1545 98.7433,31.4878 99.5,33C 98.9747,33.6924 98.3081,34.1924 97.5,34.5C 93.8763,29.4906 90.2097,29.3239 86.5,34C 86.7591,35.2613 87.4258,36.2613 88.5,37C 92.4508,37.5362 95.9508,39.0362 99,41.5C 100.12,44.9994 99.2868,47.8328 96.5,50C 92.428,50.9559 88.5946,50.4559 85,48.5C 83.9914,46.9751 83.4914,45.3084 83.5,43.5C 84.5,43.5 85.5,43.5 86.5,43.5C 86.6513,46.8496 88.4846,48.5163 92,48.5C 96.5914,47.6702 97.7581,45.5036 95.5,42C 92.1019,41.0203 88.7685,39.8536 85.5,38.5C 83.2077,34.9946 83.5411,31.6613 86.5,28.5 Z"/></g>
<g><path style="opacity:0.511" fill="#000000" d="M 175.5,28.5 C 176.5,28.5 177.5,28.5 178.5,28.5C 178.5,29.5 178.5,30.5 178.5,31.5C 177.5,31.5 176.5,31.5 175.5,31.5C 175.5,30.5 175.5,29.5 175.5,28.5 Z"/></g>
<g><path style="opacity:0.596" fill="#000000" d="M 200.5,28.5 C 214.541,27.3582 219.374,33.3582 215,46.5C 209.264,51.4066 203.264,51.7399 197,47.5C 192.883,40.0535 194.05,33.7201 200.5,28.5 Z M 203.5,30.5 C 212.845,31.0076 216.011,35.6742 213,44.5C 205.263,50.5581 199.763,48.8914 196.5,39.5C 197.659,35.4813 199.992,32.4813 203.5,30.5 Z"/></g>
<g><path style="opacity:0.576" fill="#000000" d="M 222.5,28.5 C 226.584,28.0431 230.417,28.7098 234,30.5C 234.781,31.9437 234.614,33.277 233.5,34.5C 229.591,29.2414 225.924,29.2414 222.5,34.5C 222.833,35.1667 223.167,35.8333 223.5,36.5C 227.745,37.301 231.579,38.9677 235,41.5C 236.123,44.9563 235.29,47.7897 232.5,50C 229.167,50.6667 225.833,50.6667 222.5,50C 219.726,48.3948 219.06,46.2281 220.5,43.5C 223.095,48.1346 226.762,49.3013 231.5,47C 232.833,45.3333 232.833,43.6667 231.5,42C 227.899,41.06 224.399,39.8933 221,38.5C 218.925,34.7942 219.425,31.4609 222.5,28.5 Z"/></g>
<g><path style="opacity:0.63" fill="#000000" d="M 102.5,34.5 C 104.26,37.7006 105.094,41.3673 105,45.5C 107.282,49.0406 109.949,49.3739 113,46.5C 113.499,42.5138 113.666,38.5138 113.5,34.5C 114.5,34.5 115.5,34.5 116.5,34.5C 116.5,39.8333 116.5,45.1667 116.5,50.5C 103.822,52.48 99.1557,47.1467 102.5,34.5 Z"/></g>
<g><path style="opacity:0.613" fill="#000000" d="M 119.5,34.5 C 122.667,34.6746 126.001,34.8413 129.5,35C 131.011,36.6149 132.344,36.6149 133.5,35C 136.167,34.3333 138.833,34.3333 141.5,35C 142.701,35.9025 143.535,37.0692 144,38.5C 144.499,42.4862 144.666,46.4862 144.5,50.5C 143.5,50.5 142.5,50.5 141.5,50.5C 141.666,46.4862 141.499,42.4862 141,38.5C 138.577,36.0062 136.244,36.0062 134,38.5C 133.501,42.4862 133.334,46.4862 133.5,50.5C 132.5,50.5 131.5,50.5 130.5,50.5C 130.665,46.8183 130.499,43.1516 130,39.5C 127.383,35.5241 124.716,35.5241 122,39.5C 121.825,43.211 121.325,46.8776 120.5,50.5C 119.505,45.2079 119.172,39.8746 119.5,34.5 Z"/></g>
<g><path style="opacity:0.609" fill="#000000" d="M 147.5,34.5 C 150.999,34.6331 154.666,34.7997 158.5,35C 159.5,37 160.5,37 161.5,35C 164.167,34.3333 166.833,34.3333 169.5,35C 170.701,35.9025 171.535,37.0692 172,38.5C 172.499,42.4862 172.666,46.4862 172.5,50.5C 171.5,50.5 170.5,50.5 169.5,50.5C 169.666,46.4862 169.499,42.4862 169,38.5C 166.756,36.0062 164.423,36.0062 162,38.5C 161.501,42.4862 161.334,46.4862 161.5,50.5C 160.5,50.5 159.5,50.5 158.5,50.5C 158.666,46.4862 158.499,42.4862 158,38.5C 154.429,35.4673 151.762,36.1339 150,40.5C 149.824,43.8818 149.324,47.2152 148.5,50.5C 147.505,45.2079 147.172,39.8746 147.5,34.5 Z"/></g>
<g><path style="opacity:0.502" fill="#000000" d="M 175.5,34.5 C 176.5,34.5 177.5,34.5 178.5,34.5C 178.5,39.8333 178.5,45.1667 178.5,50.5C 177.5,50.5 176.5,50.5 175.5,50.5C 175.5,45.1667 175.5,39.8333 175.5,34.5 Z"/></g>
<g><path style="opacity:1" fill="#aee168" d="M 41.5,59.5 C 44.4255,65.6094 46.7589,71.9427 48.5,78.5C 40.8333,78.5 33.1667,78.5 25.5,78.5C 28.6521,68.8747 32.4854,59.5413 37,50.5C 39.1631,53.1478 40.6631,56.1478 41.5,59.5 Z"/></g>
</svg>
